<?xml version="1.0" encoding="utf-8"?>
<!-- Generator: Adobe Illustrator 24.2.1, SVG Export Plug-In . SVG Version: 6.00 Build 0)  -->
<svg version="1.1" id="Calque_1" xmlns="http://www.w3.org/2000/svg" xmlns:xlink="http://www.w3.org/1999/xlink" x="0px" y="0px"
	 viewBox="0 0 1742.1 450.4" style="enable-background:new 0 0 1742.1 450.4;" xml:space="preserve">
<style type="text/css">
	.st0{fill:url(#SVGID_1_);}
	.st1{fill:url(#SVGID_2_);}
</style>
<linearGradient id="SVGID_1_" gradientUnits="userSpaceOnUse" x1="563.9313" y1="621.7461" x2="563.9313" y2="620.7461" gradientTransform="matrix(404.13 0 0 -450.43 -227699.5 280053.0938)">
	<stop  offset="0" style="stop-color:#CD262B"/>
	<stop  offset="1" style="stop-color:#770A0C"/>
</linearGradient>
<path class="st0" d="M404.1,67.3c0,22.7-10.2,42.9-25.7,55.1L227.6,257.1c-2.8,2.4-6.4-1.5-4.4-4.7l55.3-110.7
	c1.5-3.1-0.5-6.9-3.6-6.9H60.4C27.2,134.7,0,104.4,0,67.4C0,30.3,27.2,0,60.4,0h283.3C377,0,404.1,30.3,404.1,67.3L404.1,67.3z
	 M60.4,450.4h283.3c33.2,0,60.4-30.3,60.4-67.4c0-37.1-27.2-67.4-60.4-67.4H129.2c-3.2,0-5.2-3.8-3.6-6.9l55.3-110.7
	c2-3.2-1.6-7.1-4.4-4.7L25.7,328C10.2,340.2,0,360.4,0,383.1C0,420.1,27.2,450.4,60.4,450.4z"/>
<linearGradient id="SVGID_2_" gradientUnits="userSpaceOnUse" x1="564.9531" y1="622.5735" x2="564.9531" y2="619.5735" gradientTransform="matrix(1159.22 0 0 -268.22 -653742.4375 166812.6875)">
	<stop  offset="0" style="stop-color:#CD262B"/>
	<stop  offset="1" style="stop-color:#770A0C"/>
</linearGradient>
<path class="st1" d="M582.9,326.3l124.8-179.6v-1.6H594.6v-49h190.1v34.2L662.6,307.6v1.6h124v49H582.9V326.3z M921.9,96.1V247
	c0,45.1,17.1,68,47.4,68c31.1,0,48.2-21.8,48.2-68V96.1h59.1v146.9c0,80.9-40.8,119.3-109.2,119.3c-66.1,0-105-36.5-105-120.1V96.1
	H921.9L921.9,96.1z M1166.8,96.1h59.5v212.3h104.2v49.8h-163.7V96.1z M1463.8,96.1v262h-59.5v-262H1463.8z M1554,99.6
	c18.3-3.1,43.9-5.4,80.1-5.4c36.5,0,62.6,7,80.1,21c16.7,13.2,28,35,28,60.6c0,25.7-8.6,47.4-24.1,62.2
	c-20.2,19-50.2,27.6-85.1,27.6c-7.8,0-14.8-0.4-20.2-1.2v93.7H1554L1554,99.6L1554,99.6z M1612.7,218.6c5.1,1.2,11.3,1.5,19.8,1.5
	c31.5,0,50.9-15.9,50.9-42.8c0-24.1-16.7-38.5-46.3-38.5c-12.1,0-20.2,1.2-24.5,2.3V218.6z"/>
</svg>
